<svg width="25" height="25" viewBox="0 0 25 25" fill="none" xmlns="http://www.w3.org/2000/svg">
<path d="M7.81266 3.64584C4.65768 3.64584 2.0835 6.22003 2.0835 9.37501C2.0835 11.5084 3.69164 13.5171 5.65202 15.5772C7.61239 17.6373 10.0254 19.7237 11.9478 21.6461C12.0943 21.7926 12.293 21.8749 12.5002 21.8749C12.7073 21.8749 12.906 21.7926 13.0525 21.6461C14.975 19.7237 17.3879 17.6373 19.3483 15.5772C21.3087 13.5171 22.9168 11.5084 22.9168 9.37501C22.9168 6.22003 20.3426 3.64584 17.1877 3.64584C15.377 3.64584 13.8006 4.61797 12.5002 6.26934C11.1997 4.61797 9.62331 3.64584 7.81266 3.64584ZM7.81266 5.20834C9.33796 5.20834 10.6076 6.02001 11.84 7.96917C11.9104 8.0805 12.0079 8.17221 12.1233 8.23576C12.2388 8.2993 12.3684 8.33263 12.5002 8.33263C12.6319 8.33263 12.7616 8.2993 12.877 8.23576C12.9924 8.17221 13.0899 8.0805 13.1604 7.96917C14.3927 6.02001 15.6624 5.20834 17.1877 5.20834C19.4983 5.20834 21.3543 7.06436 21.3543 9.37501C21.3543 10.627 20.0979 12.5245 18.2171 14.5009C16.502 16.3032 14.3701 18.1862 12.5002 20.0094C10.6302 18.1862 8.49829 16.3032 6.7832 14.5009C4.90243 12.5245 3.646 10.627 3.646 9.37501C3.646 7.06436 5.50202 5.20834 7.81266 5.20834Z" fill="#7F7F7F"/>
</svg>
