<svg width="25" height="25" viewBox="0 0 25 25" fill="none" xmlns="http://www.w3.org/2000/svg">
<path d="M1.82314 3.12502C1.71961 3.12355 1.61683 3.14268 1.52076 3.18128C1.42469 3.21989 1.33725 3.2772 1.26353 3.34989C1.1898 3.42258 1.13126 3.5092 1.0913 3.60472C1.05134 3.70023 1.03076 3.80273 1.03076 3.90627C1.03076 4.0098 1.05134 4.1123 1.0913 4.20782C1.13126 4.30333 1.1898 4.38995 1.26353 4.46264C1.33725 4.53533 1.42469 4.59265 1.52076 4.63125C1.61683 4.66986 1.71961 4.68898 1.82314 4.68752H3.25848C3.63761 4.68752 3.95365 4.94946 4.02549 5.32228L4.18113 6.13608L5.86061 14.9567C6.16432 16.5481 7.56644 17.7084 9.18703 17.7084H18.9384C20.559 17.7084 21.9617 16.5485 22.2648 14.9567L23.9443 6.13608C23.9659 6.02315 23.9622 5.90685 23.9336 5.79549C23.9051 5.68412 23.8523 5.58044 23.779 5.49183C23.7057 5.40322 23.6138 5.33187 23.5098 5.28287C23.4058 5.23386 23.2923 5.20842 23.1773 5.20835H5.59409L5.56052 5.03033C5.35056 3.92998 4.37885 3.12502 3.25848 3.12502H1.82314ZM5.89215 6.77085H22.2333L20.7298 14.6647C20.5652 15.5291 19.8189 16.1459 18.9384 16.1459H9.18703C8.30689 16.1459 7.56105 15.5291 7.39565 14.6647V14.6637L5.89215 6.77085ZM10.4169 18.75C10.0025 18.75 9.60506 18.9146 9.31203 19.2077C9.01901 19.5007 8.85439 19.8981 8.85439 20.3125C8.85439 20.7269 9.01901 21.1243 9.31203 21.4174C9.60506 21.7104 10.0025 21.875 10.4169 21.875C10.8313 21.875 11.2287 21.7104 11.5217 21.4174C11.8148 21.1243 11.9794 20.7269 11.9794 20.3125C11.9794 19.8981 11.8148 19.5007 11.5217 19.2077C11.2287 18.9146 10.8313 18.75 10.4169 18.75ZM17.7086 18.75C17.2942 18.75 16.8967 18.9146 16.6037 19.2077C16.3107 19.5007 16.1461 19.8981 16.1461 20.3125C16.1461 20.7269 16.3107 21.1243 16.6037 21.4174C16.8967 21.7104 17.2942 21.875 17.7086 21.875C18.123 21.875 18.5204 21.7104 18.8134 21.4174C19.1064 21.1243 19.2711 20.7269 19.2711 20.3125C19.2711 19.8981 19.1064 19.5007 18.8134 19.2077C18.5204 18.9146 18.123 18.75 17.7086 18.75Z" fill="#7F7F7F"/>
</svg>
